<svg width="24" height="25" viewBox="0 0 24 25" fill="none" xmlns="http://www.w3.org/2000/svg">
<path d="M19.24 6.08H18.84L15.46 2.7C15.19 2.43 14.75 2.43 14.47 2.7C14.2 2.97 14.2 3.41 14.47 3.69L16.86 6.08H7.14L9.53 3.69C9.8 3.42 9.8 2.98 9.53 2.7C9.26 2.43 8.82 2.43 8.54 2.7L5.17 6.08H4.77C3.87 6.08 2 6.08 2 8.64C2 9.61 2.2 10.25 2.62 10.67C2.86 10.92 3.15 11.05 3.46 11.12C3.75 11.19 4.06 11.2 4.36 11.2H19.64C19.95 11.2 20.24 11.18 20.52 11.12C21.36 10.92 22 10.32 22 8.64C22 6.08 20.13 6.08 19.24 6.08Z" fill="#386BF6"/>
<path d="M19.05 12.5H4.87003C4.25003 12.5 3.78003 13.05 3.88003 13.66L4.72003 18.8C5.00003 20.52 5.75003 22.5 9.08003 22.5H14.69C18.06 22.5 18.66 20.81 19.02 18.92L20.03 13.69C20.15 13.07 19.68 12.5 19.05 12.5ZM10.61 18.95C10.61 19.34 10.3 19.65 9.92003 19.65C9.53003 19.65 9.22003 19.34 9.22003 18.95V15.65C9.22003 15.27 9.53003 14.95 9.92003 14.95C10.3 14.95 10.61 15.27 10.61 15.65V18.95ZM14.89 18.95C14.89 19.34 14.58 19.65 14.19 19.65C13.81 19.65 13.49 19.34 13.49 18.95V15.65C13.49 15.27 13.81 14.95 14.19 14.95C14.58 14.95 14.89 15.27 14.89 15.65V18.95Z" fill="#386BF6"/>
</svg>
