<svg width="30" height="26" viewBox="0 0 30 26" fill="none" xmlns="http://www.w3.org/2000/svg">
<path d="M20 6.5C20 5.94772 19.5523 5.5 19 5.5H6C5.44772 5.5 5 5.94772 5 6.5C5 7.05228 5.44772 7.5 6 7.5H19C19.5523 7.5 20 7.05228 20 6.5Z" fill="#386BF6"/>
<path d="M20 11.5C20 10.9477 19.5523 10.5 19 10.5H6C5.44772 10.5 5 10.9477 5 11.5C5 12.0523 5.44772 12.5 6 12.5H19C19.5523 12.5 20 12.0523 20 11.5Z" fill="#386BF6"/>
<path d="M5 16.5C5 15.9477 5.44772 15.5 6 15.5H14C14.5523 15.5 15 15.9477 15 16.5C15 17.0523 14.5523 17.5 14 17.5H6C5.44772 17.5 5 17.0523 5 16.5Z" fill="#386BF6"/>
<path fill-rule="evenodd" clip-rule="evenodd" d="M17.1968 14.9466C15.7323 16.4111 15.7323 18.7855 17.1968 20.25C18.3513 21.4045 20.0714 21.6489 21.4653 20.983L23.3839 22.9016L25.1516 21.1339L23.233 19.2153C23.8989 17.8213 23.6545 16.1013 22.5 14.9466C21.0355 13.4823 18.6611 13.4823 17.1968 14.9466ZM18.9645 18.4823C19.4526 18.9704 20.2441 18.9704 20.7323 18.4823C21.2204 17.994 21.2204 17.2026 20.7323 16.7145C20.2441 16.2263 19.4526 16.2263 18.9645 16.7145C18.4764 17.2026 18.4764 17.994 18.9645 18.4823Z" fill="#386BF6"/>
</svg>
