<svg width="30" height="31" viewBox="0 0 30 31" fill="none" xmlns="http://www.w3.org/2000/svg">
<path d="M20 7C20 6.44772 19.5523 6 19 6H6C5.44772 6 5 6.44772 5 7C5 7.55228 5.44772 8 6 8H19C19.5523 8 20 7.55228 20 7Z" fill="#9DB2CE"/>
<path d="M20 12C20 11.4477 19.5523 11 19 11H6C5.44772 11 5 11.4477 5 12C5 12.5523 5.44772 13 6 13H19C19.5523 13 20 12.5523 20 12Z" fill="#9DB2CE"/>
<path d="M5 17C5 16.4477 5.44772 16 6 16H14C14.5523 16 15 16.4477 15 17C15 17.5523 14.5523 18 14 18H6C5.44772 18 5 17.5523 5 17Z" fill="#9DB2CE"/>
<path fill-rule="evenodd" clip-rule="evenodd" d="M17.1968 15.4466C15.7323 16.9111 15.7323 19.2855 17.1968 20.75C18.3513 21.9045 20.0714 22.1489 21.4653 21.483L23.3839 23.4016L25.1516 21.6339L23.233 19.7153C23.8989 18.3213 23.6545 16.6013 22.5 15.4466C21.0355 13.9823 18.6611 13.9823 17.1968 15.4466ZM18.9645 18.9823C19.4526 19.4704 20.2441 19.4704 20.7323 18.9823C21.2204 18.494 21.2204 17.7026 20.7323 17.2145C20.2441 16.7263 19.4526 16.7263 18.9645 17.2145C18.4764 17.7026 18.4764 18.494 18.9645 18.9823Z" fill="#9DB2CE"/>
</svg>
